<?xml version="1.0" encoding="UTF-8" standalone="no"?>
<!-- Created with Inkscape (http://www.inkscape.org/) -->

<svg
   width="120"
   height="120"
   viewBox="0 0 31.749999 31.750001"
   version="1.1"
   id="svg5"
   inkscape:version="1.1 (c68e22c387, 2021-05-23)"
   sodipodi:docname="Icon.svg"
   xmlns:inkscape="http://www.inkscape.org/namespaces/inkscape"
   xmlns:sodipodi="http://sodipodi.sourceforge.net/DTD/sodipodi-0.dtd"
   xmlns="http://www.w3.org/2000/svg"
   xmlns:svg="http://www.w3.org/2000/svg">
  <sodipodi:namedview
     id="namedview7"
     pagecolor="#ffffff"
     bordercolor="#999999"
     borderopacity="1"
     inkscape:pageshadow="0"
     inkscape:pageopacity="0"
     inkscape:pagecheckerboard="0"
     inkscape:document-units="mm"
     showgrid="false"
     inkscape:zoom="3.0003928"
     inkscape:cx="63.824976"
     inkscape:cy="90.488152"
     inkscape:window-width="1920"
     inkscape:window-height="1027"
     inkscape:window-x="-8"
     inkscape:window-y="-8"
     inkscape:window-maximized="1"
     inkscape:current-layer="layer1"
     inkscape:snap-midpoints="true"
     showguides="true"
     inkscape:guide-bbox="true"
     units="px" />
  <defs
     id="defs2" />
  <g
     inkscape:label="Layer 1"
     inkscape:groupmode="layer"
     id="layer1">
    <g
       id="g5652"
       transform="translate(15.933784,36.645317)">
      <path
         id="circle5554"
         style="fill:none;stroke:#005ea8;stroke-width:1.134;stroke-linecap:round;stroke-linejoin:round"
         d="M 15.124301,-20.770312 A 15.183085,15.183085 0 0 1 -0.05877908,-5.5872321 15.183085,15.183085 0 0 1 -15.241869,-20.770312 15.183085,15.183085 0 0 1 -0.05877908,-35.953402 15.183085,15.183085 0 0 1 15.124301,-20.770312 Z" />
      <path
         style="fill:none;stroke:#005ea8;stroke-width:1.13395;stroke-linecap:round;stroke-linejoin:round;stroke-miterlimit:4;stroke-dasharray:none;stroke-opacity:1"
         d="m -5.7284391,-26.439992 11.33936,11.33936 -5.66967998,5.6696699 V -32.109662 l 5.66967998,5.66967 -11.33936,11.33936"
         id="path5556" />
      <path
         id="circle5558"
         style="fill:#005ea8;stroke-width:1.06924;stroke-linecap:round;stroke-linejoin:round"
         d="m 14.609101,-10.005542 a 3.96875,3.96875 0 0 1 -3.96875,3.9687499 3.96875,3.96875 0 0 1 -3.9687501,-3.9687499 3.96875,3.96875 0 0 1 3.9687501,-3.96875 3.96875,3.96875 0 0 1 3.96875,3.96875 z" />
      <path
         style="fill:none;stroke:#ffffff;stroke-width:0.964184;stroke-linecap:round;stroke-linejoin:miter;stroke-miterlimit:4;stroke-dasharray:none;stroke-opacity:1"
         d="M 7.7712909,-10.005522 H 13.509471"
         id="path5560" />
      <path
         style="fill:none;stroke:#ffffff;stroke-width:0.964094;stroke-linecap:round;stroke-linejoin:miter;stroke-miterlimit:4;stroke-dasharray:none;stroke-opacity:1"
         d="m 10.640381,-12.874102 v 5.7371499"
         id="path5562" />
    </g>
  </g>
</svg>
